<?xml version="1.0" encoding="UTF-8" standalone="no"?>
<svg
   xmlns:dc="http://purl.org/dc/elements/1.1/"
   xmlns:cc="http://creativecommons.org/ns#"
   xmlns:rdf="http://www.w3.org/1999/02/22-rdf-syntax-ns#"
   xmlns:svg="http://www.w3.org/2000/svg"
   xmlns="http://www.w3.org/2000/svg"
   xmlns:sodipodi="http://sodipodi.sourceforge.net/DTD/sodipodi-0.dtd"
   xmlns:inkscape="http://www.inkscape.org/namespaces/inkscape"
   id="svg850"
   version="1.1"
   viewBox="0 0 31.253759 63.417599"
   height="63.417599mm"
   width="31.253759mm"
   sodipodi:docname="SmallLogo.svg"
   inkscape:version="0.92.4 (5da689c313, 2019-01-14)">
  <sodipodi:namedview
     pagecolor="#ffffff"
     bordercolor="#666666"
     borderopacity="1"
     objecttolerance="10"
     gridtolerance="10"
     guidetolerance="10"
     inkscape:pageopacity="0"
     inkscape:pageshadow="2"
     inkscape:window-width="2736"
     inkscape:window-height="1714"
     id="namedview823"
     showgrid="false"
     inkscape:zoom="1.2774832"
     inkscape:cx="90.198495"
     inkscape:cy="98.246897"
     inkscape:window-x="-12"
     inkscape:window-y="-12"
     inkscape:window-maximized="1"
     inkscape:current-layer="svg850" />
  <defs
     id="defs844" />
  <metadata
     id="metadata847">
    <rdf:RDF>
      <cc:Work
         rdf:about="">
        <dc:format>image/svg+xml</dc:format>
        <dc:type
           rdf:resource="http://purl.org/dc/dcmitype/StillImage" />
        <dc:title></dc:title>
      </cc:Work>
    </rdf:RDF>
  </metadata>
  <g
     id="layer1"
     transform="translate(-81.134982,-111.07689)">
    <g
       transform="matrix(0.4363308,0,0,0.52359695,-52.834027,128.88838)"
       id="g4580">
      <path
         style="fill:#000000;stroke-width:0.26458335"
         d="m 345.2355,42.944156 c -3.33354,-11.279919 -4.37115,-19.518261 -3.08946,-24.529618 0.8147,-3.185457 3.11078,-7.301829 6.58264,-11.8012383 2.75804,-3.57433 5.14997,-5.78172496 10.25022,-9.459439 l 0.76646,-0.552678 -0.67823,-0.806034 c -0.4811,-0.571747 -0.77789,-1.388626 -1.02109,-2.810349 -0.29946,-1.750673 -0.28165,-2.4598 0.14073,-5.6035957 0.41472,-3.086769 0.43537,-3.81349 0.145,-5.103639 -0.60963,-2.708745 -0.63014,-3.820949 -0.0831,-4.508332 l 0.49554,-0.622723 1.10266,1.384889 c 0.60647,0.76169 1.10262,1.518165 1.10257,1.681057 -7e-5,0.19681 0.80761,0.296167 2.40755,0.296167 h 2.40759 l 0.83358,0.979477 c 0.45848,0.538712 1.39914,1.219091 2.09036,1.511952 1.00583,0.426154 1.25677,0.660175 1.25677,1.172025 0,0.471508 0.32899,0.853553 1.25209,1.454021 1.04283,0.678352 1.53264,1.313698 2.93082,3.801623 l 1.67874,2.9871527 -0.13074,1.897687 c -0.0948,1.375699 -0.0299,2.030698 0.23576,2.38125 0.20158,0.265959 0.37029,0.966817 0.37492,1.557462 0.006,0.748509 0.29037,1.54214004 0.93898,2.61925904 0.51181,0.84994696 0.89876,1.56170596 0.8599,1.58168196 -0.0389,0.01998 -0.56525,0.367617 -1.16972,0.772533 l -1.09904,0.736214 -1.04472,-0.532977 c -0.57459,-0.293137 -1.86596,-0.675291 -2.86971,-0.849231 -1.00374,-0.173939 -2.88666,-0.656735 -4.18427,-1.072877 -1.29761,-0.416145 -2.6073,-0.76034896 -2.91042,-0.76489996 -0.30312,-0.0046 -1.11668,-0.285432 -1.8079,-0.624179 l -1.25677,-0.615905 -0.009,0.690325 c -0.005,0.379677 -0.17953,0.98797996 -0.3875,1.35178296 -0.20796,0.363802 -0.38234,1.219978 -0.38749,1.902613 -0.0105,1.384208 -0.27181,1.698345 -1.06138,1.275776 -1.26882,-0.67905 -2.08827,-4.14140396 -1.31994,-5.57703296 1.31665,-2.46019404 -6.33654,4.19276196 -9.3235,8.10495796 -1.75637,2.300414 -4.40908,6.5789043 -5.30781,8.5608433 -1.99297,4.394991 -2.01308,9.777164 -0.0688,18.408886 10.53782,38.71753 9.09393,35.599335 1.35771,8.725113 z m 26.00443,-46.0616623 c 0.11075,-0.09533 -0.004,-0.135221 -1.75766,-0.611566 -1.21925,-0.331161 -1.51112,-0.813345 -0.49233,-0.813345 0.34768,0 0.91322,-0.240835 1.25677,-0.535186 l 0.62462,-0.535186 -0.99508,0.168301 c -1.04042,0.175967 -1.92537,-0.241088 -1.60646,-0.757087 0.11212,-0.181417 -0.0479,-0.209214 -0.46594,-0.08095 -0.35017,0.107432 -0.93434,0.255935 -1.29814,0.330007 -0.60618,0.123423 -0.59201,0.09027 0.16957,-0.39679 1.13079,-0.723178 1.38427,-1.171565 0.54292,-0.960398 -0.8726,0.219006 -1.15391,-0.299413 -0.53997,-0.995086 0.48298,-0.547284 0.48088,-0.551523 -0.17252,-0.348038 -1.11708,0.347886 -2.75794,0.436287 -3.15799,0.170135 -0.31478,-0.209423 -0.32056,-0.324176 -0.0337,-0.669764 0.28751,-0.346423 0.28239,-0.41704 -0.0302,-0.41704 -0.207,0 -0.50886,0.132501 -0.6708,0.294446 -0.50759,0.50759 -0.91618,-0.0098 -0.71851,-0.9097557 0.15612,-0.710827 0.12646,-0.783266 -0.20729,-0.506274 -0.21422,0.177784 -0.48437,0.234979 -0.60033,0.127101 -0.21656,-0.201464 0.0132,2.5062057 0.26935,3.1736147 0.0938,0.244422 0.41288,0.332431 0.93006,0.256524 1.12942,-0.165764 2.12069,0.3413 3.01113,1.540275 0.4268,0.574691 1.23047,1.345647 1.78593,1.713235 0.55547,0.367589 1.00994,0.777113 1.00994,0.910056 0,0.214921 2.88269,0.08005 3.14672,-0.147227 z M 333.78136,65.638316 c 0.26045,-6.503451 1.01142,-12.925751 2.85404,-24.407814 1.2391,-7.721283 2.27483,-14.875212 2.77717,-19.182293 0.6312,-5.411841 0.64041,-14.1542833 0.0186,-17.5947933 -0.98279,-5.43732496 -2.70078,-9.106609 -5.74967,-12.280181 -2.04635,-2.130027 -2.62991,-2.3574727 -2.62991,-1.02502 0,0.459485 -0.3434,1.003512 -1.0385,1.64522 -0.57117,0.527304 -1.11236,1.312685 -1.20265,1.745295 -0.47136,2.258488 -0.72182,2.711135 -2.53605,4.58321604 -1.6711,1.724387 -1.9642,1.92363696 -2.58854,1.759683 -0.38723,-0.10169 -1.83515,-0.272921 -3.21759,-0.380514 -2.87128,-0.223464 -4.65034,-0.883848 -5.49449,-2.03954304 l -0.5515,-0.755031 -0.2845,0.745368 c -0.23275,0.60975704 -0.39278,0.71266104 -0.87962,0.56559004 -0.32731,-0.09888 -0.89276,-0.44969904 -1.25656,-0.77960104 -0.3638,-0.329898 -1.13946,-0.895641 -1.72368,-1.257207 -1.79414,-1.110366 -1.81232,-1.162786 -1.46727,-4.230362 0.50866,-4.5221397 1.04295,-5.4829347 2.78199,-5.0027637 0.6507,0.179667 1.21546,0.177476 1.74398,-0.0068 1.03146,-0.359568 0.99387,-0.739661 -0.0782,-0.791296 -1.82128,-0.08771 -2.21802,-0.152591 -2.78335,-0.455149 -0.32111,-0.171854 -0.65949,-0.613872 -0.75195,-0.982263 -0.16959,-0.675704 -0.0258,-2.286033 0.26966,-3.019091 0.10952,-0.271778 -0.25755,-0.680971 -1.16456,-1.29818 -1.30392,-0.887311 -1.32449,-0.922643 -1.32449,-2.275622 0,-1.765431 0.37541,-2.758407 1.32841,-3.513732 0.64962,-0.514874 0.84269,-0.555874 1.29308,-0.274599 0.84585,0.528241 0.97742,0.01677 0.20349,-0.791042 -0.82419,-0.860272 -0.89092,-1.39386 -0.24529,-1.96145 0.60719,-0.533798 2.38399,-1.404856 3.33015,-1.632567 0.41275,-0.09934 1.32952,-0.722258 2.03726,-1.384268 1.26545,-1.183682 1.84248,-1.308827 1.84248,-0.399592 0,0.546487 0.49408,1.095635 0.98576,1.095635 0.27932,0 0.26855,-0.158966 -0.0529,-0.780611 -0.85773,-1.658677 -0.23894,-2.730785 1.1245,-1.948277 0.69325,0.397868 0.85744,0.408812 1.24967,0.08329 0.67116,-0.557011 3.75393,-1.290505 5.49694,-1.307904 1.42906,-0.01427 1.54588,0.03181 1.80578,0.712352 0.15284,0.400182 0.34575,1.531276 0.4287,2.513541 0.083,0.982266 0.199,1.785938 0.25788,1.785938 0.0589,0 0.4423,-0.17336 0.85204,-0.385245 0.61968,-0.320448 0.77499,-0.611485 0.92341,-1.730337 0.14622,-1.102236 0.29594,-1.389768 0.82927,-1.592538 0.35796,-0.136095 0.9783,-0.182842 1.37855,-0.103881 0.50742,0.100106 1.18464,-0.101003 2.23711,-0.664335 1.87444,-1.003289 2.42844,-0.875498 2.19499,0.506308 -0.1553,0.919186 -0.10297,1.024769 0.76025,1.534084 0.66029,0.38958 1.01861,0.852635 1.24532,1.609319 0.25871,0.863502 0.59603,1.23487 1.80208,1.983966 0.81609,0.506884 1.63989,1.17823 1.83067,1.491881 0.47899,0.787512 0.1797,1.890023 -0.7566,2.787053 -0.42949,0.41148 -0.78089,0.971821 -0.78089,1.245204 0,0.880954 -0.50981,1.487278 -1.68917,2.008964 -1.2539,0.554661 -1.97077,1.275438 -0.9898,0.995195 1.80374,-0.515291 1.66172,-0.606355 1.46941,0.942209 -0.0964,0.775883 -0.39275,1.916802 -0.65865,2.535376 -0.91738,2.134099 -4.55764,5.357612 -6.05026,5.357612 -0.30151,0 -0.5482,0.07735 -0.5482,0.171889 0,0.09454 0.59002,0.7375977 1.31116,1.4290197 5.20652,4.99196 7.41906,13.417911 6.66293,25.3742213 -0.37565,5.940049 -0.92491,10.291088 -2.80717,22.237373 -2.43196,15.435057 -3.30993,22.98942 -3.31333,28.508856 -10e-4,2.101329 -0.0635,2.447396 -0.43983,2.447396 -0.39656,0 -0.42242,-0.397113 -0.27144,-4.167188 z M 323.62738,-12.50553 c 0.15536,0.251385 0.43649,0.137202 1.10431,-0.448528 0.49274,-0.43217 1.53902,-1.132895 2.32507,-1.557167 l 1.42919,-0.771405 0.045,-1.509061 c 0.0248,-0.829983 -0.0528,-1.509061 -0.17241,-1.509061 -0.1196,0 -0.21746,0.106324 -0.21746,0.236276 0,0.129952 -0.19185,0.309896 -0.42633,0.399876 -0.28409,0.109014 -0.38198,0.04802 -0.29341,-0.182808 0.0893,-0.232713 -0.25027,-0.435313 -1.03462,-0.617292 -0.79399,-0.184213 -1.08106,-0.18439 -0.89722,-5.55e-4 0.14868,0.148683 0.27031,0.395349 0.27028,0.548146 -7e-5,0.329352 -1.56569,0.362026 -2.07352,0.04327 -0.53594,-0.3364 -0.88753,0.190358 -0.88873,1.331509 -5.3e-4,0.560833 -0.13798,1.30707 -0.30532,1.658304 -0.23221,0.487393 -0.22946,0.663729 0.0116,0.744699 0.17373,0.05835 0.25028,0.276992 0.17013,0.485871 -0.0819,0.213503 0.0114,0.383465 0.2133,0.388195 0.25444,0.006 0.22534,0.109938 -0.0999,0.356891 -0.2524,0.191662 -0.38242,0.424967 -0.28893,0.518456 0.0935,0.09349 0.33884,0.02984 0.54522,-0.141439 0.28961,-0.240356 0.4228,-0.234465 0.58366,0.02581 z"
         id="path4577"
         inkscape:connector-curvature="0" />
    </g>
    <path
       id="path3770"
       d="m 81.745083,148.38574 c 1.78737,-5.3955 1.93771,-5.73794 1.93771,-5.73794 l 0.98555,-2.35531 0.85192,-1.45328 2.1131,-3.48286 1.46998,-1.64538 1.20272,-0.61805 0.53454,-0.0668 0.68487,0.10022 0.60136,0.30068 0.47607,0.55959 0.24222,0.61807 0.15869,1.52844 v 4.9779 l -0.10023,1.83748 -0.0752,0.91038 -0.30903,1.24448 -0.43431,1.23612 -0.47607,0.93544 -0.49278,0.91874 -0.63477,1.12754 -0.55959,1.12755 -0.5763,1.21941 -0.54289,1.35305 -0.23386,1.23613 -0.26727,1.59526 -0.0752,1.26118 -0.0167,1.42822 0.10022,1.18601 0.32574,1.27788 0.33408,0.99391 c 0,0 0.40926,0.79346 0.45102,0.85192 0.0418,0.0585 0.71828,0.96885 0.71828,0.96885 l 0.91039,0.7517 0.82687,0.56795 0.96885,0.40926 c 0,0 0.93544,0.32573 0.96885,0.34244 0.0334,0.0167 1.10249,0.2255 1.10249,0.2255 0,0 1.01061,0.13364 1.11919,0.15034 0.10857,0.0167 1.31964,-0.0251 1.38646,-0.0251 0.0668,0 1.49504,-0.26727 1.49504,-0.26727 l 0.96885,-0.25056 1.302937,-0.60971 1.11919,-0.78511 0.86027,-0.76004 0.65982,-0.90204 0.61807,-1.26118 0.27562,-1.17765 0.1921,-1.79572 0.025,-1.02732 -0.11693,-1.33634 -0.16704,-1.23613 -0.25057,-1.11084 -0.35914,-1.42822 -0.49278,-1.23612 -0.93544,-1.95441 -0.93545,-1.73725 -0.69323,-1.5368 -0.30903,-1.07743 -0.24221,-1.45328 -0.16704,-1.72054 -0.12528,-1.73726 0.008,-2.02122 0.0585,-1.41987 0.15869,-1.328 0.31739,-1.14425 0.4009,-0.47607 0.65982,-0.3842 0.49278,-0.0752 0.65147,0.0752 0.68488,0.25892 0.65982,0.44266 0.71829,0.66818 0.7851,0.99391 c 0,0 0.72664,1.01896 0.76005,1.06907 0.0334,0.0501 1.11919,1.83748 1.11919,1.83748 l 0.86027,1.57021 0.5763,1.18601 0.56795,1.26953 0.52619,1.44493 0.593,1.67043 c 0,0 0.39255,1.52845 0.41761,1.61197 0.0251,0.0835 0.5596,2.23838 0.56795,2.28014 0.008,0.0418 0.15869,1.5368 0.15869,1.5368 l 0.28397,2.38037 0.16705,2.08804 c 0,0 -0.0418,1.16931 -0.0418,1.20272 0,0.0334 -0.19209,1.83748 -0.19209,1.88759 0,0.0501 -0.0585,1.10248 -0.0585,1.1526 0,0.0501 -0.27562,1.80407 -0.27562,1.80407 l -0.34244,1.67879 -0.47607,1.58691 -0.50114,1.58691 -0.34243,0.95215 -0.49278,1.11919 -0.63477,1.40316 -0.56794,1.27789 -0.49278,1.00226 -0.37585,0.76005 c 0,0 -0.46772,0.66817 -0.50113,0.70158 -0.0334,0.0334 -0.63477,0.52618 -0.63477,0.52618 l -0.81016,0.27562 c 0,0 -1.66208,0.0501 -1.71219,0.0501 -0.0501,0 -2.42213,0.10023 -2.42213,0.10023 0,0 -2.230027,-0.0251 -2.288497,-0.0251 -0.0585,0 -3.25734,-0.0167 -3.25734,-0.0167 l -5.47069,-0.0334 -3.44944,-0.28397 -0.87698,-0.25892 -0.65147,-0.46772 -1.11919,-2.12145 -1.04402,-2.51401 -1.25283,-4.10091 -0.4176,-2.02958 c 0,0 -0.14199,-2.08804 -0.14199,-2.14651 0,-0.0585 -0.18375,-1.67043 -0.18375,-1.67043 l -0.12528,-2.90656 0.0418,-2.12145 0.13363,-2.17157 0.11693,-1.81242 z"
       style="fill:none;stroke:#000000;stroke-width:0.1;stroke-linecap:round;stroke-linejoin:miter;stroke-miterlimit:4;stroke-dasharray:none;stroke-dashoffset:0;stroke-opacity:1"
       inkscape:connector-curvature="0" />
    <path
       id="path4582"
       d="m 100.84005,174.37624 c -0.004,-0.004 -2.308607,-0.0191 -5.121517,-0.0337 l -5.1144,-0.0266 -1.77176,-0.14096 -1.77176,-0.14097 -0.42523,-0.12156 c -0.23387,-0.0669 -0.44648,-0.13216 -0.47247,-0.14512 -0.026,-0.013 -0.18153,-0.11907 -0.34566,-0.23582 l -0.29841,-0.21227 -0.55612,-1.05455 c -0.54131,-1.02646 -0.57004,-1.08805 -1.07825,-2.31129 l -0.52213,-1.25673 -0.62405,-2.04335 -0.62405,-2.04334 -0.21184,-1.03408 -0.21184,-1.03408 -0.0736,-1.12211 c -0.0405,-0.61717 -0.11076,-1.44635 -0.15615,-1.84264 -0.0701,-0.61182 -0.0925,-0.95038 -0.14897,-2.24423 -0.0957,-2.19415 -0.0757,-2.97131 0.17355,-6.7327 0.0555,-0.83699 0.061,-0.882 0.18858,-1.53553 0.14768,-0.75646 0.11983,-0.66703 1.26546,-4.06325 0.72387,-2.1459 0.72881,-2.15931 1.29358,-3.50809 l 0.49459,-1.18117 0.39487,-0.67327 c 0.21717,-0.3703 0.8803,-1.47435 1.47361,-2.45343 l 1.07876,-1.78016 0.72924,-0.81843 0.72925,-0.81843 0.60154,-0.31008 0.60153,-0.31008 0.25425,-0.0293 c 0.21985,-0.0253 0.29549,-0.0238 0.5591,0.0109 0.29142,0.0385 0.3189,0.047 0.62377,0.19432 l 0.31891,0.15408 0.23068,0.27424 c 0.21676,0.2577 0.23764,0.29211 0.34608,0.57038 l 0.1154,0.29614 0.0852,0.8149 0.0852,0.8149 -1.4e-4,2.33138 c -1.4e-4,2.18153 -0.004,2.39944 -0.0588,3.39018 -0.0934,1.68528 -0.10684,1.80432 -0.28406,2.51124 -0.20126,0.80283 -0.5053,1.67294 -0.76871,2.19996 -0.25213,0.50443 -0.6867,1.31475 -1.06671,1.98901 -0.57809,1.0257 -1.34171,2.61009 -1.76522,3.66253 l -0.26484,0.65815 -0.11713,0.61752 c -0.0644,0.33964 -0.17962,0.99491 -0.256,1.45616 -0.12412,0.74949 -0.14291,0.90895 -0.17679,1.50009 -0.0523,0.91239 -0.0489,1.98449 0.008,2.64668 0.0428,0.49421 0.0535,0.55425 0.21292,1.18632 0.35701,1.41585 0.64446,2.07021 1.30035,2.96008 l 0.36616,0.4968 0.4511,0.37377 c 0.24811,0.20557 0.64074,0.50473 0.87252,0.66479 0.38408,0.26525 0.46234,0.30852 0.88362,0.48866 0.25422,0.1087 0.70124,0.28264 0.99337,0.38653 0.62992,0.224 1.19737,0.35007 2.18555,0.48554 l 0.61421,0.0842 0.73233,-0.0229 0.73233,-0.0229 0.66146,-0.12216 c 0.3638,-0.0672 0.89506,-0.18208 1.18059,-0.2553 0.51072,-0.13096 0.52984,-0.13815 1.181167,-0.44395 0.64826,-0.30436 0.67355,-0.31891 1.21446,-0.69869 0.38622,-0.27118 0.6843,-0.50435 0.99081,-0.77506 0.42591,-0.37616 0.44782,-0.40006 0.76894,-0.83875 0.3114,-0.4254 0.34871,-0.48862 0.64424,-1.09146 l 0.31369,-0.63991 0.14154,-0.61214 c 0.13365,-0.57801 0.14678,-0.66283 0.23563,-1.52164 0.12935,-1.25029 0.13918,-1.6558 0.0616,-2.53953 -0.12579,-1.432 -0.23764,-2.07193 -0.65143,-3.72704 -0.17535,-0.7014 -0.20447,-0.79256 -0.44524,-1.39379 -0.33236,-0.82996 -1.04661,-2.31964 -1.65421,-3.4501 -0.31626,-0.58842 -0.58449,-1.12808 -0.81236,-1.63443 -0.31258,-0.69459 -0.35272,-0.80005 -0.49455,-1.29929 -0.27826,-0.97952 -0.45703,-2.29484 -0.61943,-4.55761 -0.10584,-1.47471 -0.07,-3.65404 0.0812,-4.93904 0.067,-0.56907 0.084,-0.65736 0.23168,-1.20119 l 0.15939,-0.58697 0.19514,-0.23168 c 0.18246,-0.21662 0.21547,-0.24365 0.50791,-0.41584 0.29858,-0.17581 0.32378,-0.18595 0.5559,-0.22365 0.22131,-0.036 0.27117,-0.0364 0.55515,-0.005 0.67039,0.0752 1.28269,0.39732 1.98799,1.04594 0.28672,0.26369 0.41883,0.41023 0.7664,0.85014 0.63103,0.79867 1.09581,1.47316 1.70925,2.48047 0.92884,1.52523 1.59262,2.78027 2.26525,4.28306 0.2815,0.62891 0.4319,1.02386 1.06328,2.79218 0.35354,0.99013 0.50112,1.51673 1.0858,3.87425 l 0.23434,0.94494 0.083,0.79139 c 0.0456,0.43526 0.1462,1.32292 0.22347,1.97257 0.0773,0.64964 0.17825,1.64892 0.22442,2.2206 0.0826,1.02338 0.0836,1.04911 0.0595,1.66546 -0.015,0.3849 -0.0603,0.97634 -0.11771,1.53553 -0.0513,0.50023 -0.10904,1.19653 -0.12827,1.54734 -0.03,0.5473 -0.0536,0.75688 -0.16628,1.47647 -0.0722,0.46125 -0.20683,1.2107 -0.29913,1.66546 -0.17904,0.88214 -0.33156,1.42887 -0.90427,3.24149 -0.4295,1.35935 -0.57439,1.72837 -1.36153,3.46759 -0.15877,0.3508 -0.43539,0.96738 -0.61471,1.37016 -0.17932,0.40278 -0.51447,1.11503 -0.74477,1.58277 -0.36956,0.75057 -0.44807,0.8917 -0.66849,1.20167 -0.22935,0.32252 -0.27493,0.37214 -0.5577,0.60726 l -0.30794,0.25605 -0.38979,0.13364 -0.38979,0.13363 -0.98037,0.0316 c -0.53921,0.0174 -1.50128,0.0538 -2.13793,0.0809 -1.02633,0.0437 -1.6251,0.0564 -1.64671,0.0348 z"
       style="fill:#000000;stroke-width:0.00892857;stroke-linecap:round;stroke-miterlimit:4;stroke-dasharray:none;stroke-dashoffset:0"
       inkscape:connector-curvature="0" />
  </g>
</svg>
